<?xml version="1.0" standalone="no"?>
<!DOCTYPE svg PUBLIC "-//W3C//DTD SVG 20010904//EN"
 "http://www.w3.org/TR/2001/REC-SVG-20010904/DTD/svg10.dtd">
<svg version="1.0" xmlns="http://www.w3.org/2000/svg"
 width="627.000000pt" height="627.000000pt" viewBox="0 0 627.000000 627.000000"
 preserveAspectRatio="xMidYMid meet">
<metadata>
Created by potrace 1.11, written by Peter Selinger 2001-2013
</metadata>
<g transform="translate(0.000000,627.000000) scale(0.100000,-0.100000)"
fill="#000000" stroke="none">
<path d="M359 4801 c-20 -4 -50 -17 -66 -29 -17 -12 -36 -22 -42 -22 -6 0 -11
-9 -11 -20 0 -11 -11 -30 -25 -42 -22 -19 -25 -28 -19 -63 4 -32 1 -49 -14
-74 -16 -27 -19 -44 -14 -99 9 -99 0 -205 -20 -229 -16 -20 -20 -122 -9 -208
24 -177 24 -170 -19 -228 -43 -57 -45 -88 -7 -118 20 -16 23 -32 29 -159 2
-59 -14 -134 -32 -147 -25 -18 -32 -108 -11 -144 9 -16 19 -29 23 -29 3 0 1
-16 -5 -36 -8 -27 -8 -40 1 -55 15 -24 15 -100 1 -133 -9 -19 -9 -29 0 -40 7
-8 8 -17 3 -20 -5 -3 -8 -36 -7 -73 4 -89 9 -119 25 -138 7 -9 10 -27 7 -44
-4 -17 -1 -36 7 -47 9 -12 11 -27 6 -43 -13 -40 -19 -190 -9 -197 5 -3 0 -18
-11 -34 -26 -36 -26 -36 10 -49 36 -12 42 -48 8 -53 -28 -4 -62 -101 -46 -132
30 -55 -16 -167 -74 -181 -15 -3 -29 -14 -32 -23 -21 -77 68 -174 170 -185 27
-3 54 -7 59 -8 6 -2 21 4 35 13 14 9 36 18 50 20 14 2 31 8 39 12 8 5 31 13
50 17 126 27 171 47 171 74 0 18 34 37 52 30 7 -3 28 6 47 19 18 14 39 22 46
20 7 -3 22 5 34 17 12 13 21 20 21 16 0 -3 22 5 48 18 27 14 77 31 111 39 34
8 73 22 87 30 16 11 24 13 24 5 0 -8 7 -6 18 4 10 10 28 17 39 17 11 0 37 14
58 30 21 17 43 30 49 31 6 1 27 2 46 4 19 1 78 8 130 14 52 6 104 12 115 14
12 1 21 11 23 25 2 12 12 27 23 32 10 6 19 19 19 29 0 25 45 103 56 99 5 -2
10 7 12 19 2 13 12 29 24 37 l20 14 -22 30 c-15 20 -21 39 -18 56 3 14 2 26
-1 26 -3 0 -7 15 -7 33 -2 54 -13 75 -69 129 -24 23 -45 19 -138 -28 -64 -32
-69 -33 -101 -20 -32 13 -34 13 -45 -10 -10 -22 -26 -29 -58 -25 -6 1 -14 -3
-18 -9 -8 -13 -55 -13 -75 0 -8 5 -11 10 -5 10 5 0 -5 14 -23 30 -18 17 -37
30 -41 30 -5 0 -14 6 -20 14 -10 12 -18 11 -51 -5 -21 -10 -44 -19 -50 -19 -5
0 -10 -4 -10 -9 0 -5 -8 -7 -19 -4 -14 3 -21 -3 -30 -28 -6 -18 -17 -40 -24
-48 -8 -9 -20 -32 -27 -51 -27 -71 -187 -199 -202 -161 -1 4 -13 12 -26 15
-19 6 -25 2 -42 -38 -19 -45 -30 -53 -89 -59 -33 -3 -50 53 -27 89 25 37 48
114 41 132 -4 10 -9 47 -11 84 -2 37 -8 77 -15 89 -14 28 -13 137 2 156 9 10
9 19 0 36 -7 13 -10 43 -6 76 6 63 10 71 33 71 11 0 18 9 20 25 1 13 2 28 3
32 5 31 -2 55 -16 49 -8 -3 -16 -1 -16 4 -2 16 -4 23 -16 60 -18 53 -27 210
-13 210 7 0 10 7 7 15 -4 8 -2 17 3 20 5 3 5 18 0 34 -4 16 -6 32 -3 34 2 3
-2 18 -9 34 -10 20 -13 58 -10 138 2 61 3 126 2 145 -1 32 -1 125 -1 255 0 28
-1 70 -2 95 -1 31 8 63 28 104 15 33 28 66 28 74 0 8 11 19 24 25 13 6 22 16
19 23 -17 43 137 62 226 28 24 -9 47 -21 53 -26 5 -4 17 -8 26 -8 9 0 22 -6
28 -14 7 -8 26 -13 46 -12 21 2 36 -2 39 -10 3 -8 12 -14 21 -14 8 0 32 -9 52
-20 21 -11 42 -20 48 -21 5 0 26 -20 45 -44 22 -27 43 -44 57 -44 34 -1 132
26 146 41 8 7 30 22 50 33 20 11 37 23 37 27 0 5 7 8 15 8 8 0 19 8 24 18 15
29 23 100 11 107 -5 3 -10 39 -10 79 0 41 -5 77 -12 84 -6 6 -11 26 -10 45 1
27 -5 38 -28 55 -31 23 -50 28 -50 13 0 -14 -31 -19 -58 -9 -14 5 -31 4 -42
-2 -27 -15 -164 -17 -181 -3 -8 6 -45 13 -82 16 -54 4 -74 10 -93 28 -22 21
-36 24 -117 25 -128 3 -175 12 -182 35 -8 25 -39 33 -79 19 -23 -7 -41 -7 -60
0 -30 11 -43 11 -97 1z"/>
<path d="M2507 4358 c-67 -62 -67 -64 -69 -118 -1 -74 11 -153 27 -165 30 -25
22 -69 -18 -93 l-33 -19 -45 22 c-24 13 -64 26 -89 30 -25 4 -52 13 -61 21
-13 12 -20 11 -50 -4 -119 -62 -209 -241 -159 -317 17 -26 64 -57 73 -48 3 2
24 -2 47 -10 32 -11 50 -12 71 -4 20 8 35 8 51 0 13 -6 44 -17 69 -23 26 -7
60 -24 77 -40 16 -15 37 -30 46 -33 12 -5 16 -21 16 -74 -1 -37 0 -77 1 -88 3
-60 -14 -233 -25 -250 -15 -23 -23 -73 -39 -239 -5 -46 -12 -65 -31 -83 -15
-14 -23 -29 -19 -39 3 -8 8 -13 10 -10 3 3 14 -3 25 -13 27 -26 25 -68 -5
-125 -14 -27 -23 -54 -20 -60 10 -15 4 -67 -8 -83 -7 -8 -8 -23 -3 -40 9 -30
14 -95 14 -182 0 -37 -5 -57 -15 -65 -14 -10 -14 -15 -1 -47 8 -20 18 -72 21
-115 6 -89 6 -90 0 -161 -3 -38 0 -53 11 -57 9 -4 14 -21 14 -55 l0 -50 33 2
c17 2 37 5 42 9 14 8 45 -6 72 -31 26 -24 43 -27 43 -6 0 8 5 25 11 39 10 22
15 24 33 14 12 -6 37 -10 56 -9 19 2 46 4 60 5 22 2 25 7 28 43 2 23 -1 65 -6
93 -5 29 -6 53 -1 56 5 3 7 9 4 14 -3 5 10 41 29 79 35 68 66 101 96 101 8 0
21 9 28 20 14 24 54 26 72 5 7 -8 19 -15 26 -15 13 0 15 4 18 37 2 25 45 61
80 67 20 4 36 11 36 15 0 5 8 8 17 7 11 -1 27 17 45 49 19 35 38 55 63 66 19
9 48 31 63 50 15 18 49 56 76 84 26 27 56 61 64 75 32 49 86 109 94 104 4 -3
8 7 8 23 0 15 9 42 20 58 11 17 20 36 20 43 0 8 9 27 21 43 11 16 17 33 14 39
-3 5 -1 10 4 10 7 0 11 26 11 67 0 43 5 72 14 82 11 13 12 27 4 71 -5 30 -14
59 -19 65 -5 5 -9 19 -9 32 0 27 -20 73 -32 73 -5 0 -7 4 -4 9 3 4 -2 15 -12
23 -9 9 -36 33 -58 54 -57 54 -116 99 -137 107 -10 4 -23 20 -28 37 -9 24 -17
30 -39 30 -15 0 -33 7 -40 15 -7 8 -18 15 -26 15 -27 0 -62 23 -57 36 3 9 -2
14 -15 14 -11 0 -22 -4 -24 -8 -7 -18 -66 8 -72 31 -4 16 -20 27 -63 40 -71
23 -80 29 -123 90 -22 31 -41 47 -55 47 -26 0 -51 25 -60 62 -8 33 -28 50 -58
52 -18 1 -22 6 -19 31 7 78 2 275 -7 294 -8 14 -8 28 -1 47 12 29 11 31 -22
50 -40 23 -72 36 -104 41 -26 4 -38 -3 -97 -59z m330 -1086 c18 -6 38 -14 45
-19 34 -21 86 -32 130 -27 28 4 53 2 60 -4 7 -6 30 -13 51 -17 29 -6 40 -14
54 -42 14 -30 20 -34 44 -29 28 5 59 -13 59 -36 0 -5 6 -8 14 -5 8 3 17 -1 20
-9 3 -8 21 -24 41 -35 27 -16 35 -28 35 -48 0 -16 5 -43 11 -60 10 -28 9 -37
-10 -61 -11 -16 -21 -34 -21 -40 0 -7 -20 -31 -45 -56 -25 -24 -45 -50 -45
-57 0 -8 -13 -20 -30 -27 -16 -7 -32 -21 -35 -31 -4 -12 -16 -19 -31 -19 -14
0 -55 -16 -91 -35 -36 -19 -76 -35 -88 -35 -11 0 -30 -7 -41 -15 -10 -8 -29
-15 -41 -15 -12 0 -39 -16 -60 -35 -34 -31 -43 -35 -88 -32 -70 4 -78 11 -71
61 7 49 -9 213 -23 229 -12 16 -21 77 -11 77 13 0 17 31 9 69 -6 27 -3 40 11
58 15 19 17 30 9 49 -15 40 -11 82 10 103 13 13 21 41 26 90 l7 71 32 -4 c17
-2 45 -9 63 -14z"/>
<path d="M5700 4339 c-30 -16 -62 -38 -70 -49 -10 -14 -28 -21 -53 -22 -33 -1
-41 -6 -57 -37 -10 -20 -32 -49 -50 -66 -17 -16 -37 -43 -44 -60 -31 -71 -36
-88 -31 -93 2 -3 1 -10 -4 -16 -5 -6 -14 -38 -21 -71 -6 -33 -18 -82 -26 -109
-8 -27 -14 -60 -14 -73 0 -13 -8 -43 -19 -66 -19 -42 -27 -74 -57 -222 -9 -44
-25 -99 -36 -123 -11 -24 -18 -54 -16 -67 3 -13 0 -26 -7 -29 -7 -2 -15 -24
-18 -48 -12 -80 -26 -138 -42 -162 -9 -13 -18 -37 -21 -52 -9 -58 -27 -129
-34 -139 -5 -5 -10 -35 -13 -65 -6 -61 -21 -146 -34 -199 -10 -39 -30 -51 -40
-24 -8 22 -43 52 -60 53 -7 0 -17 9 -23 20 -6 11 -19 20 -28 20 -10 0 -36 9
-57 20 -22 12 -51 20 -65 19 -14 -1 -33 2 -43 6 -10 4 -21 5 -24 1 -4 -3 -17
3 -29 15 -13 12 -37 22 -54 23 -18 1 -38 10 -45 20 -9 11 -20 16 -33 12 -11
-4 -37 -2 -58 3 -203 51 -225 69 -231 191 -4 72 -3 79 16 85 12 3 21 10 21 15
0 5 11 21 24 37 13 15 29 46 36 68 7 22 21 52 31 66 10 14 28 52 40 85 12 32
28 68 35 79 7 11 20 40 29 65 8 24 22 51 29 60 8 8 14 33 15 55 0 22 9 81 21
130 29 128 29 125 -1 285 -9 47 -16 59 -50 83 -30 22 -43 26 -53 18 -9 -8 -18
-7 -32 4 -17 12 -24 11 -64 -12 -25 -15 -49 -32 -53 -40 -4 -7 -20 -13 -35
-13 -16 0 -33 -5 -40 -12 -8 -8 -14 -5 -21 15 -6 15 -17 27 -26 27 -8 0 -15 6
-15 14 0 7 -13 16 -30 19 -36 8 -88 -19 -96 -50 -3 -11 -17 -31 -30 -44 -13
-12 -24 -28 -24 -35 0 -7 -8 -21 -19 -31 -22 -22 -41 -75 -41 -115 0 -16 -5
-38 -10 -48 -6 -12 -7 -21 -1 -25 6 -3 7 -20 4 -38 -7 -41 -7 -62 1 -118 5
-32 2 -54 -9 -75 -8 -16 -15 -38 -15 -49 0 -11 -12 -42 -26 -69 -19 -36 -25
-60 -22 -92 2 -24 0 -44 -4 -44 -5 0 -8 -11 -8 -25 0 -14 -4 -33 -9 -43 -5 -9
-14 -30 -21 -47 -7 -16 -15 -37 -19 -45 -4 -8 -8 -34 -10 -57 -1 -23 -10 -68
-20 -100 -11 -32 -18 -73 -17 -91 2 -20 -4 -42 -14 -55 -13 -16 -18 -43 -19
-96 0 -40 -3 -76 -5 -80 -3 -4 0 -45 5 -92 15 -124 19 -220 9 -256 -5 -21 -3
-45 6 -72 7 -22 11 -47 8 -56 -4 -9 1 -17 12 -22 11 -3 30 -17 44 -31 34 -33
102 -27 136 13 13 16 24 31 24 34 0 3 23 30 50 59 28 29 50 60 50 68 0 36 39
72 92 85 29 7 58 11 63 9 6 -2 37 -4 70 -6 33 -1 71 -4 85 -8 14 -3 39 -9 57
-12 18 -3 37 -12 43 -19 7 -8 35 -13 75 -14 51 0 69 -5 89 -22 15 -13 26 -26
26 -30 0 -3 17 -25 38 -47 35 -37 41 -40 95 -41 32 0 57 3 57 9 0 6 3 9 8 8
17 -3 42 16 42 32 0 20 46 80 61 80 5 0 9 -7 9 -15 0 -22 40 -43 90 -47 l45
-4 87 90 c77 81 90 99 109 160 13 39 22 92 22 120 -1 28 2 65 7 81 5 17 14 59
20 95 7 36 15 69 18 75 4 5 8 30 9 55 4 72 8 95 14 100 11 8 39 112 33 121 -3
5 -1 9 5 9 5 0 12 26 16 58 4 31 15 78 26 104 11 26 18 51 17 55 -1 4 5 24 14
43 8 19 18 60 22 90 4 30 11 59 16 65 5 6 11 29 13 50 3 22 10 41 17 43 6 2
15 15 20 28 14 36 38 29 49 -13 24 -93 47 -208 55 -283 1 -8 7 -25 13 -36 7
-12 10 -24 7 -27 -3 -3 2 -32 12 -64 9 -32 18 -69 19 -83 1 -14 3 -25 4 -25 1
0 4 -16 7 -35 2 -19 7 -42 11 -50 3 -8 7 -17 7 -20 1 -3 7 -24 14 -47 6 -24
17 -62 23 -85 22 -89 52 -184 67 -218 8 -19 16 -39 17 -45 1 -5 6 -23 13 -38
7 -16 12 -36 12 -46 0 -10 8 -33 17 -52 13 -25 17 -63 18 -159 1 -124 1 -125
28 -140 24 -13 30 -13 59 2 18 10 45 20 59 23 20 5 31 18 43 50 9 23 25 50 36
60 11 10 17 22 14 26 -3 5 -1 9 4 9 20 0 53 135 41 169 -4 14 -10 51 -12 81
-2 30 -11 72 -20 93 -9 21 -17 61 -18 88 -1 27 -6 49 -10 49 -4 0 -11 27 -15
61 -4 33 -12 66 -18 72 -7 6 -10 23 -8 39 2 15 0 34 -6 41 -5 6 -21 53 -36
102 -15 50 -33 106 -41 125 -8 19 -17 60 -20 90 -6 46 -20 109 -42 180 -3 8
-6 61 -8 118 -2 75 -7 109 -20 128 -9 14 -14 32 -11 39 3 8 1 17 -5 20 -5 4
-7 11 -3 16 3 5 1 15 -4 22 -14 17 -42 114 -35 121 4 3 -2 15 -11 25 -14 15
-16 29 -11 60 4 23 2 48 -4 60 -10 18 -19 61 -25 116 -3 25 -27 78 -41 87 -15
12 -26 9 -85 -23z"/>
<path d="M1428 3685 c-3 -3 -49 -8 -101 -10 -103 -4 -137 -15 -137 -45 0 -10
-4 -22 -10 -25 -5 -3 -10 -17 -10 -31 0 -25 -80 -114 -102 -114 -6 0 -8 -7 -4
-15 3 -8 -2 -21 -11 -30 -8 -9 -18 -39 -22 -67 -4 -36 -12 -54 -26 -62 -30
-17 -60 -58 -63 -86 -2 -24 -2 -33 -1 -73 0 -20 39 -49 72 -52 12 -2 27 -4 32
-6 6 -1 23 1 38 6 17 4 33 3 39 -3 13 -13 45 -4 52 14 10 25 64 16 98 -16 37
-35 37 -35 91 -11 32 15 46 28 55 55 7 20 18 36 23 36 5 0 19 11 31 25 25 29
40 31 58 10 16 -20 39 -19 47 2 4 9 15 25 25 35 24 24 23 34 -7 60 -33 29 -32
42 10 92 31 38 33 45 21 62 -8 10 -13 24 -12 29 0 6 -9 11 -21 13 -17 3 -23
10 -23 29 0 13 -15 51 -34 83 -19 32 -36 66 -38 76 -3 19 -56 33 -70 19z"/>
<path d="M5696 2591 c-3 -4 -16 -6 -30 -4 -17 4 -27 -1 -35 -16 -8 -15 -22
-21 -44 -21 -42 0 -52 -8 -70 -52 -9 -21 -22 -38 -30 -38 -8 0 -24 -20 -36
-44 -11 -25 -30 -47 -42 -51 -22 -7 -54 -69 -44 -85 4 -6 1 -10 -6 -10 -9 0
-9 -3 1 -15 6 -8 9 -23 5 -35 -4 -11 -2 -20 4 -20 6 0 11 -9 11 -20 0 -21 25
-26 98 -21 23 1 32 -2 32 -14 0 -24 23 -18 60 15 18 17 37 30 42 30 5 0 16 16
25 35 9 20 25 35 37 37 32 5 105 147 117 225 5 34 6 68 3 76 -10 27 -85 49
-98 28z"/>
</g>
</svg>
